<svg width="100" height="32" viewBox="0 0 100 32" fill="none" xmlns="http://www.w3.org/2000/svg">
  <path fill-rule="evenodd" clip-rule="evenodd" d="M94.5433 6.6195C94.0257 6.18707 93.5404 5.95422 92.8934 5.80453C92.5375 5.72137 92.1655 5.70474 91.7935 5.72137C92.6346 6.83571 94.0257 8.19953 95.4653 8.14963C95.3359 7.50099 95.0286 7.05193 94.5433 6.6195ZM96.7918 11.8419C96.8241 10.5446 95.8212 9.39703 94.7051 8.9147C94.3654 8.76501 94.0095 8.66522 93.6375 8.61532C94.2036 9.84609 95.433 11.6423 96.7918 11.8419ZM97.277 15.8835C97.5844 14.5363 96.8565 13.1226 95.805 12.3575C95.4977 12.1247 95.158 11.9583 94.786 11.8253C95.1095 13.1891 95.9668 15.3679 97.277 15.8835ZM96.8403 19.9417C97.4549 18.6943 96.9859 17.081 96.1285 16.083C95.8536 15.767 95.5624 15.5176 95.2227 15.3013C95.2551 16.7982 95.6109 19.1433 96.8403 19.9417ZM95.5462 23.6339C96.4197 22.5529 96.2903 20.8897 95.6271 19.7421C95.4168 19.3928 95.1742 19.0768 94.883 18.794C94.608 20.2078 94.4786 22.5861 95.5462 23.6339ZM94.4625 25.2971C94.6566 24.4988 94.608 23.8501 94.3654 23.0684C94.236 22.6859 94.0419 22.3034 93.7993 21.9541C93.6537 22.3533 93.5081 22.7524 93.3949 23.1516C93.0713 24.3158 92.8449 25.8626 93.4757 26.927C93.9934 26.478 94.2683 25.979 94.4625 25.2971ZM90.7097 29.7046C92.0038 29.0393 92.6022 27.426 92.4405 26.0123C92.392 25.5799 92.2787 25.1807 92.117 24.7815C91.8743 25.1474 91.6479 25.53 91.4376 25.9125C90.92 26.9104 90.2568 28.5736 90.7097 29.7046ZM93.3625 4.87315C92.9096 3.72555 91.5508 3.14343 90.4185 3.14343C90.0465 3.14343 89.6906 3.19333 89.3509 3.29312C90.3215 4.15798 92.0684 5.23905 93.3625 4.87315ZM91.4861 2.46152C90.4024 2.46152 89.2701 1.59666 88.526 0.864859C88.251 0.582117 87.9922 0.299374 87.7495 0C88.1378 0 88.526 0.0498957 88.9142 0.166319C89.9656 0.432429 91.2758 1.26402 91.4861 2.46152ZM96.0638 7.85026C95.2065 6.88561 94.9477 5.45526 94.8669 4.19124C94.8507 3.75881 94.8507 3.34301 94.8992 2.94385C95.5301 3.60912 96.0962 4.54051 96.3388 5.43863C96.5329 6.27023 96.5976 7.11845 96.0638 7.85026ZM97.4549 11.6756C96.8565 10.5446 96.8888 8.9646 97.1314 7.7172C97.1962 7.30141 97.3094 6.88561 97.4388 6.48644C97.6976 6.91887 97.8917 7.36793 98.0373 7.85026C98.377 9.11428 98.5387 10.7276 97.4549 11.6756ZM97.9564 15.8668C97.6491 14.5363 98.0373 12.9396 98.5711 11.7089C98.749 11.3097 98.9431 10.9272 99.1858 10.5613C99.3313 11.0602 99.4284 11.5758 99.4607 12.108C99.4931 13.4718 99.2828 15.2016 97.9564 15.8668ZM97.5035 20.0913C97.5035 18.7109 98.3123 17.1808 99.1049 16.0997C99.3799 15.7171 99.671 15.3845 99.9945 15.0851C100.011 15.6007 99.9945 16.2494 99.8975 16.765C99.6225 18.1121 98.9916 19.792 97.5035 20.0913ZM96.1609 23.9499C96.4844 22.5861 97.6167 21.3221 98.6681 20.4905C99.024 20.2078 99.396 19.9583 99.7681 19.7254C99.671 20.2743 99.5093 20.8231 99.2828 21.3387C98.7005 22.6028 97.6814 24.0664 96.1609 23.9499ZM94.0095 27.3761C94.7213 26.0456 95.983 25.1807 97.3094 24.5653C97.7299 24.3824 98.1505 24.2327 98.5711 24.0996C98.3446 24.6152 98.0696 25.1142 97.7299 25.5632C96.905 26.6443 95.4168 27.8751 94.0095 27.3761ZM91.1303 30.2701C92.0846 29.1557 93.7184 28.5071 95.1095 28.241C95.5624 28.1578 96.0153 28.0913 96.4844 28.0913C96.1285 28.557 95.7242 28.9894 95.2712 29.3719C94.1389 30.2368 92.489 31.1516 91.1303 30.2701ZM93.864 4.42409C92.8611 3.75881 92.214 2.36173 91.8905 1.23076C91.7773 0.831595 91.6964 0.432429 91.6317 0.0166319C92.0199 0.26611 92.3758 0.565485 92.6993 0.898123C93.4919 1.71309 94.3816 3.24322 93.864 4.42409ZM5.45667 6.61952C5.97429 6.18709 6.45956 5.95424 7.10659 5.80455C7.46245 5.72139 7.83449 5.70476 8.20653 5.72139C7.3654 6.83573 5.97429 8.19955 4.53466 8.14965C4.66406 7.50101 4.9714 7.05195 5.45667 6.61952ZM3.20825 11.8419C3.1759 10.5446 4.17879 9.39704 5.29491 8.91472C5.6346 8.76503 5.99047 8.66524 6.36251 8.61534C5.79636 9.8461 4.56701 11.6424 3.20825 11.8419ZM2.72298 15.8835C2.41564 14.5363 3.14355 13.1226 4.19497 12.3575C4.5023 12.1247 4.84199 11.9584 5.21403 11.8253C4.89052 13.1891 4.03321 15.3679 2.72298 15.8835ZM3.15972 19.9417C2.54505 18.6943 3.01414 17.081 3.87145 16.0831C4.14644 15.7671 4.4376 15.5176 4.77729 15.3014C4.74494 16.7982 4.38907 19.1433 3.15972 19.9417ZM4.45378 23.634C3.58029 22.5529 3.7097 20.8897 4.3729 19.7421C4.58318 19.3928 4.82582 19.0768 5.11698 18.7941C5.39197 20.2078 5.52137 22.5861 4.45378 23.634ZM5.53755 25.2971C5.34344 24.4988 5.39197 23.8502 5.6346 23.0685C5.76401 22.6859 5.95812 22.3034 6.20076 21.9541C6.34633 22.3533 6.49192 22.7525 6.60514 23.1516C6.92866 24.3159 7.15511 25.8626 6.52426 26.9271C6.00664 26.478 5.73166 25.979 5.53755 25.2971ZM9.29031 29.7046C7.99625 29.0393 7.39775 27.426 7.55951 26.0123C7.60803 25.5799 7.72126 25.1807 7.88302 24.7816C8.12566 25.1475 8.35212 25.53 8.5624 25.9125C9.08002 26.9104 9.74323 28.5736 9.29031 29.7046ZM6.63749 4.87317C7.09041 3.72556 8.44917 3.14345 9.58147 3.14345C9.95351 3.14345 10.3094 3.19334 10.6491 3.29313C9.67852 4.15799 7.93155 5.23907 6.63749 4.87317ZM8.51387 2.46154C9.59764 2.46154 10.7299 1.59668 11.474 0.864877C11.749 0.582135 12.0078 0.299392 12.2505 1.82235e-05C11.8622 1.82235e-05 11.474 0.0499139 11.0858 0.166337C10.0344 0.432448 8.72416 1.26404 8.51387 2.46154ZM3.93615 7.85028C4.79347 6.88563 5.05228 5.45528 5.13316 4.19126C5.14933 3.75883 5.14933 3.34303 5.1008 2.94387C4.46995 3.60914 3.9038 4.54053 3.66117 5.43865C3.46706 6.27025 3.40236 7.11847 3.93615 7.85028ZM2.54505 11.6756C3.14355 10.5446 3.1112 8.96461 2.86856 7.71722C2.80386 7.30142 2.69063 6.88563 2.56122 6.48646C2.30241 6.91889 2.1083 7.36795 1.96272 7.85028C1.62303 9.1143 1.46128 10.7276 2.54505 11.6756ZM2.0436 15.8669C2.35094 14.5363 1.96272 12.9396 1.42892 11.7089C1.25099 11.3097 1.05688 10.9272 0.814249 10.5613C0.668668 11.0602 0.571613 11.5758 0.539262 12.108C0.506911 13.4719 0.717195 15.2016 2.0436 15.8669ZM2.49652 20.0914C2.49652 18.7109 1.68774 17.1808 0.895127 16.0997C0.62014 15.7172 0.328978 15.3845 0.00546472 15.0852C-0.010711 15.6007 0.00546472 16.2494 0.102519 16.765C0.377505 18.1122 1.00836 19.792 2.49652 20.0914ZM3.8391 23.95C3.51559 22.5861 2.38329 21.3221 1.33187 20.4905C0.976006 20.2078 0.603965 19.9583 0.231924 19.7255C0.328978 20.2743 0.490735 20.8232 0.717195 21.3388C1.29952 22.6028 2.31859 24.0664 3.8391 23.95ZM5.99047 27.3761C5.27874 26.0456 4.01703 25.1807 2.69063 24.5653C2.27006 24.3824 1.84949 24.2327 1.42892 24.0996C1.65538 24.6152 1.93037 25.1142 2.27006 25.5633C3.09502 26.6443 4.58318 27.8751 5.99047 27.3761ZM8.86974 30.2701C7.91537 29.1557 6.28163 28.5071 4.89052 28.241C4.4376 28.1578 3.98468 28.0913 3.51559 28.0913C3.87145 28.557 4.27584 28.9894 4.72876 29.372C5.86106 30.2368 7.51098 31.1516 8.86974 30.2701ZM6.13605 4.4241C7.13894 3.75883 7.78597 2.36175 8.10948 1.23078C8.22271 0.831613 8.30359 0.432448 8.36829 0.0166501C7.98007 0.266129 7.62421 0.565503 7.3007 0.898141C6.50809 1.7131 5.61843 3.24324 6.13605 4.4241ZM5.13995 6.26184C6.13493 4.66464 7.09781 3.53329 8.46189 2.28548C7.06571 3.50002 6.08678 4.63137 5.07576 6.19529C3.15 9.35641 2.36365 12.085 2.26736 15.8117C2.31551 19.5552 3.08581 22.317 4.96342 25.5114C6.92128 28.5228 8.95937 30.3862 12.0887 32C12.1128 31.9418 12.1409 31.8835 12.169 31.8253C12.1971 31.7671 12.2251 31.7088 12.2492 31.6506C9.168 30.0701 7.162 28.2732 5.23624 25.3284C3.35863 22.2005 2.58832 19.5053 2.49203 15.8284C2.54018 12.1349 3.29443 9.42296 5.13995 6.26184ZM91.5381 2.28546C92.9022 3.53327 93.8651 4.66462 94.86 6.26182C96.7056 9.42294 97.4598 12.1348 97.508 15.8284C97.4117 19.5052 96.6414 22.2005 94.7638 25.3284C92.838 28.2732 90.832 30.07 87.7508 31.6506C87.7749 31.7088 87.8029 31.7671 87.831 31.8253C87.8591 31.8835 87.8872 31.9418 87.9113 32C91.0406 30.3861 93.0787 28.5228 95.0366 25.5114C96.9142 22.317 97.6845 19.5552 97.7326 15.8117C97.6363 12.0849 96.85 9.35639 94.9242 6.19527C93.9132 4.63135 92.9343 3.5 91.5381 2.28546ZM63.1713 10.6507V7.21127H61.6658V14.9005H63.1713V13.1808L63.8179 12.6619L65.4073 14.9005H67.1448L64.8199 11.7724L67.0115 9.37571H65.3135L63.7686 11.0559C63.6468 11.1876 63.5316 11.3244 63.423 11.466C63.3177 11.6077 63.2141 11.751 63.1121 11.8959H63.0923C63.1121 11.6884 63.1302 11.4808 63.1466 11.2733C63.1631 11.0657 63.1713 10.8582 63.1713 10.6507ZM77.2488 9.28677C77.1501 9.27689 77.0629 9.27195 76.9872 9.27195C76.7437 9.27195 76.5166 9.31972 76.306 9.41526C76.0987 9.5075 75.9128 9.63269 75.7482 9.79082C75.587 9.94566 75.4521 10.117 75.3435 10.3048H75.2695L75.0473 9.37572H73.9071V14.9005H75.4126V12.0887C75.4126 11.8284 75.4537 11.6093 75.536 11.4314C75.6216 11.2503 75.7367 11.1053 75.8815 10.9966C76.0263 10.8846 76.1892 10.8039 76.3702 10.7544C76.5545 10.705 76.7437 10.6803 76.9378 10.6803C77.0036 10.6803 77.081 10.6853 77.1698 10.6951C77.262 10.7017 77.3327 10.7133 77.3821 10.7297L77.4956 9.31643C77.4331 9.30325 77.3508 9.29336 77.2488 9.28677ZM70.2101 9.27195C70.7201 9.27195 71.1594 9.37078 71.528 9.56845C71.8965 9.76282 72.1812 10.0461 72.3819 10.4184C72.5826 10.7907 72.683 11.2453 72.683 11.7823V12.5137H69.1241C69.1406 12.9387 69.2673 13.273 69.5042 13.5168C69.7444 13.7573 70.0768 13.8776 70.5013 13.8776C70.8534 13.8776 71.1759 13.8413 71.4687 13.7688C71.7616 13.6964 72.0627 13.5877 72.372 13.4427V14.6089C72.0989 14.744 71.8126 14.8428 71.5132 14.9054C71.217 14.968 70.8567 14.9993 70.4322 14.9993C69.8793 14.9993 69.389 14.8972 68.9613 14.6929C68.5368 14.4887 68.2027 14.1774 67.9592 13.759C67.719 13.3406 67.5989 12.8135 67.5989 12.1776C67.5989 11.5319 67.7075 10.9949 67.9247 10.5667C68.1452 10.1351 68.4512 9.81224 68.8428 9.5981C69.2344 9.38067 69.6901 9.27195 70.2101 9.27195ZM70.2199 10.3443C69.9271 10.3443 69.6835 10.4382 69.4894 10.626C69.2985 10.8137 69.1883 11.1086 69.1587 11.5105H71.2713C71.268 11.2865 71.2269 11.0872 71.1479 10.9126C71.0722 10.738 70.957 10.5996 70.8024 10.4975C70.651 10.3954 70.4569 10.3443 70.2199 10.3443ZM60.4219 12.1282C60.4219 12.5894 60.3594 12.998 60.2344 13.3537C60.1126 13.7095 59.9333 14.011 59.6963 14.2581C59.4627 14.5019 59.1797 14.6863 58.8473 14.8115C58.5183 14.9367 58.1464 14.9993 57.7318 14.9993C57.3435 14.9993 56.9865 14.9367 56.6607 14.8115C56.3382 14.6863 56.0569 14.5019 55.8166 14.2581C55.5797 14.011 55.3954 13.7095 55.2638 13.3537C55.1355 12.998 55.0713 12.5894 55.0713 12.1282C55.0713 11.5155 55.1799 10.9966 55.3971 10.5716C55.6143 10.1466 55.9236 9.82377 56.325 9.60304C56.7265 9.38231 57.2053 9.27195 57.7614 9.27195C58.2781 9.27195 58.7355 9.38231 59.1336 9.60304C59.5351 9.82377 59.8494 10.1466 60.0764 10.5716C60.3068 10.9966 60.4219 11.5155 60.4219 12.1282ZM56.6064 12.1282C56.6064 12.4906 56.6459 12.7953 56.7249 13.0424C56.8038 13.2895 56.9272 13.4756 57.0951 13.6008C57.2629 13.726 57.4817 13.7886 57.7516 13.7886C58.0181 13.7886 58.2336 13.726 58.3982 13.6008C58.566 13.4756 58.6878 13.2895 58.7634 13.0424C58.8424 12.7953 58.8819 12.4906 58.8819 12.1282C58.8819 11.7625 58.8424 11.4595 58.7634 11.219C58.6878 10.9752 58.566 10.7923 58.3982 10.6704C58.2303 10.5485 58.0115 10.4876 57.7417 10.4876C57.3435 10.4876 57.0539 10.6243 56.8729 10.8978C56.6952 11.1712 56.6064 11.5813 56.6064 12.1282ZM54.1582 9.28677C54.0594 9.27689 53.9722 9.27195 53.8965 9.27195C53.653 9.27195 53.426 9.31972 53.2154 9.41526C53.0081 9.5075 52.8221 9.63269 52.6576 9.79082C52.4964 9.94566 52.3615 10.117 52.2529 10.3048H52.1788L51.9567 9.37572H50.8165V14.9005H52.322V12.0887C52.322 11.8284 52.3631 11.6093 52.4454 11.4314C52.5309 11.2503 52.6461 11.1053 52.7909 10.9966C52.9357 10.8846 53.0986 10.8039 53.2795 10.7544C53.4638 10.705 53.653 10.6803 53.8472 10.6803C53.913 10.6803 53.9903 10.6853 54.0792 10.6951C54.1713 10.7017 54.2421 10.7133 54.2914 10.7297L54.405 9.31643C54.3424 9.30325 54.2602 9.29336 54.1582 9.28677ZM44.143 7.67578H46.3889C47.3498 7.67578 48.077 7.81085 48.5706 8.081C49.0642 8.35114 49.311 8.82554 49.311 9.50419C49.311 9.77763 49.2666 10.0247 49.1777 10.2454C49.0922 10.4662 48.9671 10.6474 48.8026 10.789C48.6381 10.9307 48.4373 11.0229 48.2004 11.0657V11.1152C48.4406 11.1646 48.6578 11.2502 48.8519 11.3721C49.0461 11.4907 49.2008 11.6653 49.3159 11.8959C49.4344 12.1233 49.4936 12.4263 49.4936 12.8052C49.4936 13.2434 49.3867 13.6189 49.1728 13.9319C48.9589 14.2449 48.6529 14.4854 48.2547 14.6534C47.8598 14.8181 47.3892 14.9005 46.843 14.9005H44.143V7.67578ZM45.6732 10.537H46.5616C47.0059 10.537 47.3136 10.4678 47.4847 10.3294C47.6558 10.1878 47.7413 9.98023 47.7413 9.7068C47.7413 9.43006 47.6393 9.2324 47.4353 9.1138C47.2346 8.99191 46.9154 8.93096 46.4777 8.93096H45.6732V10.537ZM45.6732 11.7526V13.6354H46.6702C47.1309 13.6354 47.4518 13.5465 47.6327 13.3686C47.8137 13.1907 47.9042 12.9518 47.9042 12.652C47.9042 12.4741 47.8647 12.3176 47.7858 12.1826C47.7068 12.0475 47.5735 11.9421 47.3859 11.8663C47.2017 11.7905 46.9466 11.7526 46.6209 11.7526H45.6732ZM40.1596 10.7939H38.2494V8.86669H37.1684V10.7939H35.2582V11.8762H37.1684V13.7787H38.2494V11.8762H40.1596V10.7939ZM32.4644 10.7939H34.3746V11.8762H32.4644V13.7787H31.3834V11.8762H29.4732V10.7939H31.3834V8.86669H32.4644V10.7939ZM26.862 13.1808L27.3852 14.9005H29.0339L26.477 7.64613H24.6063L22.0593 14.9005H23.7079L24.2311 13.1808H26.862ZM25.9735 10.2158L26.4968 11.8959H24.6161L25.1344 10.2158C25.1575 10.14 25.1953 10.0132 25.248 9.83527C25.3006 9.65738 25.3549 9.46959 25.4108 9.27193C25.4701 9.07097 25.5161 8.90295 25.5491 8.76788C25.582 8.90295 25.6247 9.06273 25.6774 9.24722C25.7333 9.42841 25.7876 9.60796 25.8403 9.78586C25.8962 9.96046 25.9406 10.1038 25.9735 10.2158ZM30.1434 24.338C29.6676 24.338 29.2796 24.1571 28.9793 23.7952C28.6816 23.4309 28.5327 22.8968 28.5327 22.1929C28.5327 21.4815 28.6841 20.9437 28.9869 20.5794C29.2897 20.2126 29.6854 20.0292 30.1739 20.0292C30.3775 20.0292 30.5569 20.0564 30.7121 20.1109C30.8673 20.1655 31.0009 20.2386 31.1128 20.3303C31.2273 20.422 31.324 20.5249 31.4029 20.6389H31.4411C31.4258 20.5596 31.4067 20.4431 31.3838 20.2894C31.3635 20.1333 31.3533 19.9734 31.3533 19.8098V18.4789H32.5212V24.2636H31.6281L31.4029 23.7246H31.3533C31.2795 23.8386 31.1866 23.9427 31.0747 24.0369C30.9653 24.1286 30.8342 24.2017 30.6816 24.2562C30.5289 24.3107 30.3495 24.338 30.1434 24.338ZM30.5518 23.4346C30.8698 23.4346 31.0938 23.3429 31.2235 23.1595C31.3558 22.9736 31.4258 22.6948 31.4334 22.323V22.2003C31.4334 21.7963 31.3698 21.4877 31.2426 21.2746C31.1154 21.059 30.8787 20.9512 30.5327 20.9512C30.2757 20.9512 30.0747 21.059 29.9297 21.2746C29.7846 21.4902 29.7121 21.8013 29.7121 22.2077C29.7121 22.6142 29.7846 22.9203 29.9297 23.126C30.0772 23.3317 30.2846 23.4346 30.5518 23.4346ZM53.3833 24.2636V20.1072H52.2192V24.2636H53.3833ZM53.2497 18.5978C53.125 18.5185 52.9762 18.4789 52.8031 18.4789C52.6276 18.4789 52.4774 18.5185 52.3528 18.5978C52.2306 18.6747 52.1696 18.8197 52.1696 19.0328C52.1696 19.2435 52.2306 19.3897 52.3528 19.4715C52.4774 19.5508 52.6276 19.5905 52.8031 19.5905C52.9762 19.5905 53.125 19.5508 53.2497 19.4715C53.3744 19.3897 53.4367 19.2435 53.4367 19.0328C53.4367 18.8197 53.3744 18.6747 53.2497 18.5978ZM69.4096 21.546C69.4096 21.9847 69.3739 22.3763 69.3027 22.7208C69.234 23.0653 69.122 23.3578 68.9668 23.5982C68.8142 23.8386 68.6132 24.022 68.3638 24.1484C68.1144 24.2748 67.8116 24.338 67.4554 24.338C67.0076 24.338 66.6399 24.2277 66.3524 24.0071C66.0649 23.7841 65.8524 23.4643 65.715 23.0479C65.5776 22.6291 65.5089 22.1284 65.5089 21.546C65.5089 20.9586 65.5713 20.4567 65.6959 20.0403C65.8232 19.6215 66.0293 19.3005 66.3142 19.0774C66.5992 18.8544 66.9796 18.7428 67.4554 18.7428C67.9007 18.7428 68.2671 18.8544 68.5546 19.0774C68.8447 19.298 69.0597 19.6177 69.1997 20.0366C69.3396 20.453 69.4096 20.9561 69.4096 21.546ZM66.6806 21.546C66.6806 21.9599 66.7035 22.3056 66.7493 22.5832C66.7977 22.8583 66.8778 23.0653 66.9898 23.2041C67.1017 23.3429 67.257 23.4123 67.4554 23.4123C67.6513 23.4123 67.8053 23.3441 67.9172 23.2078C68.0317 23.069 68.1132 22.8621 68.1615 22.587C68.2099 22.3094 68.234 21.9624 68.234 21.546C68.234 21.1321 68.2099 20.7863 68.1615 20.5088C68.1132 20.2312 68.0317 20.023 67.9172 19.8842C67.8053 19.7429 67.6513 19.6723 67.4554 19.6723C67.257 19.6723 67.1017 19.7429 66.9898 19.8842C66.8778 20.023 66.7977 20.2312 66.7493 20.5088C66.7035 20.7863 66.6806 21.1321 66.6806 21.546ZM70.0126 24.2637H73.9133V23.2971H71.482V23.245L72.1996 22.587C72.5278 22.292 72.8077 22.0231 73.0393 21.7802C73.2734 21.5373 73.4515 21.292 73.5736 21.0441C73.6957 20.7963 73.7568 20.5224 73.7568 20.2225C73.7568 19.9424 73.6856 19.6921 73.5431 19.4715C73.4006 19.2485 73.197 19.0725 72.9324 18.9436C72.6703 18.8147 72.3561 18.7503 71.9897 18.7503C71.6563 18.7503 71.3701 18.7875 71.1309 18.8618C70.8943 18.9337 70.6856 19.0291 70.505 19.1481C70.3269 19.267 70.1577 19.3935 69.9974 19.5273L70.6386 20.2671C70.8599 20.0887 71.0724 19.9511 71.2759 19.8544C71.4795 19.7578 71.6894 19.7095 71.9057 19.7095C72.1118 19.7095 72.2759 19.764 72.3981 19.873C72.5227 19.9796 72.5851 20.1407 72.5851 20.3563C72.5851 20.5348 72.5456 20.7021 72.4668 20.8582C72.3904 21.0144 72.2657 21.1879 72.0927 21.3787C71.9222 21.5671 71.6958 21.8025 71.4134 22.0851L70.0126 23.4643V24.2637ZM78.0086 20.6947C78.1155 20.5112 78.1689 20.2944 78.1689 20.0441C78.1689 19.6326 78.001 19.3141 77.6651 19.0886C77.3292 18.8631 76.8738 18.7503 76.2987 18.7503C75.8916 18.7503 75.5405 18.8011 75.2453 18.9027C74.9527 19.0043 74.697 19.132 74.4781 19.2856L75.0239 20.0775C75.113 20.0205 75.216 19.9623 75.3331 19.9028C75.4501 19.8408 75.5812 19.7888 75.7262 19.7466C75.8738 19.702 76.0366 19.6797 76.2147 19.6797C76.4997 19.6797 76.7033 19.7342 76.8254 19.8433C76.9475 19.9523 77.0086 20.1035 77.0086 20.2969C77.0086 20.4381 76.9755 20.5645 76.9094 20.6761C76.8458 20.7851 76.7236 20.8719 76.543 20.9363C76.3649 20.9983 76.104 21.0292 75.7606 21.0292H75.3293V21.9103H75.7529C76.1015 21.9103 76.3725 21.9376 76.5659 21.9921C76.7618 22.0467 76.8992 22.126 76.9781 22.2301C77.057 22.3342 77.0964 22.4618 77.0964 22.613C77.0964 22.8708 77.0112 23.0715 76.8407 23.2153C76.6727 23.3565 76.3776 23.4272 75.9552 23.4272C75.7287 23.4272 75.4845 23.3974 75.2224 23.3379C74.9603 23.276 74.7097 23.1855 74.4705 23.0666V24.0443C74.7046 24.1434 74.954 24.2166 75.2186 24.2637C75.4857 24.3132 75.7733 24.338 76.0811 24.338C76.6028 24.338 77.029 24.2661 77.3597 24.1224C77.6905 23.9786 77.9348 23.7816 78.0926 23.5313C78.2529 23.2809 78.333 22.9972 78.333 22.6799C78.333 22.323 78.216 22.038 77.9819 21.8248C77.7503 21.6117 77.4106 21.4778 76.9628 21.4233V21.401C77.1893 21.3465 77.3928 21.261 77.5735 21.1445C77.7567 21.028 77.9017 20.8781 78.0086 20.6947ZM61.0663 24.2637H64.9669V23.2971H62.5357V23.245L63.2532 22.587C63.5815 22.292 63.8614 22.0231 64.0929 21.7802C64.327 21.5373 64.5051 21.292 64.6272 21.0441C64.7494 20.7963 64.8104 20.5224 64.8104 20.2225C64.8104 19.9424 64.7392 19.6921 64.5967 19.4715C64.4542 19.2485 64.2507 19.0725 63.986 18.9436C63.724 18.8147 63.4097 18.7503 63.0433 18.7503C62.71 18.7503 62.4237 18.7875 62.1846 18.8618C61.9479 18.9337 61.7393 19.0291 61.5586 19.1481C61.3805 19.267 61.2113 19.3935 61.051 19.5273L61.6922 20.2671C61.9136 20.0887 62.126 19.9511 62.3296 19.8544C62.5331 19.7578 62.7431 19.7095 62.9593 19.7095C63.1654 19.7095 63.3296 19.764 63.4517 19.873C63.5764 19.9796 63.6387 20.1407 63.6387 20.3563C63.6387 20.5348 63.5993 20.7021 63.5204 20.8582C63.4441 21.0144 63.3194 21.1879 63.1464 21.3787C62.9759 21.5671 62.7494 21.8025 62.467 22.0851L61.0663 23.4643V24.2637ZM56.3565 20.0218C56.929 20.0218 57.3679 20.1432 57.6732 20.3861C57.9786 20.629 58.1312 20.9983 58.1312 21.494V24.2637H57.3183L57.0931 23.6986H57.0626C56.9404 23.8473 56.8158 23.9687 56.6885 24.0629C56.5613 24.1571 56.415 24.2265 56.2496 24.2711C56.0842 24.3157 55.8832 24.338 55.6466 24.338C55.3947 24.338 55.1682 24.2909 54.9672 24.1968C54.7687 24.1026 54.6123 23.9588 54.4977 23.7655C54.3832 23.5697 54.326 23.3219 54.326 23.022C54.326 22.5808 54.485 22.2561 54.8031 22.0479C55.1211 21.8372 55.5982 21.7208 56.2343 21.6985L56.9748 21.6761V21.494C56.9748 21.2759 56.9163 21.116 56.7992 21.0144C56.6822 20.9128 56.5193 20.862 56.3107 20.862C56.1046 20.862 55.9023 20.8905 55.7038 20.9475C55.5054 21.0045 55.3069 21.0764 55.1084 21.1631L54.7229 20.3973C54.9494 20.2808 55.2026 20.1891 55.4825 20.1221C55.7649 20.0552 56.0562 20.0218 56.3565 20.0218ZM56.9748 22.3379L56.5244 22.3528C56.1478 22.3627 55.8858 22.4284 55.7382 22.5498C55.5931 22.6713 55.5206 22.8311 55.5206 23.0294C55.5206 23.2029 55.5728 23.3268 55.6771 23.4012C55.7814 23.473 55.9176 23.509 56.0855 23.509C56.3349 23.509 56.5448 23.4371 56.7152 23.2934C56.8883 23.1496 56.9748 22.9451 56.9748 22.6799V22.3379ZM51.3108 23.0294C51.3108 23.3119 51.2421 23.5511 51.1047 23.7469C50.9699 23.9402 50.7676 24.0877 50.4979 24.1893C50.2281 24.2884 49.8923 24.338 49.4903 24.338C49.1926 24.338 48.9368 24.3194 48.7231 24.2822C48.5119 24.245 48.2982 24.1831 48.0819 24.0963V23.1595C48.3134 23.2611 48.5615 23.3454 48.8261 23.4123C49.0933 23.4767 49.3274 23.5089 49.5284 23.5089C49.7549 23.5089 49.9165 23.4767 50.0131 23.4123C50.1124 23.3454 50.162 23.2586 50.162 23.152C50.162 23.0826 50.1416 23.0207 50.1009 22.9662C50.0628 22.9091 49.9788 22.8459 49.849 22.7765C49.7193 22.7047 49.5157 22.6117 49.2384 22.4977C48.9712 22.3887 48.7511 22.2784 48.5781 22.1668C48.4076 22.0553 48.2804 21.924 48.1964 21.7728C48.115 21.6191 48.0743 21.4245 48.0743 21.1891C48.0743 20.8049 48.2269 20.5162 48.5323 20.3229C48.8401 20.1271 49.2511 20.0292 49.7651 20.0292C50.0297 20.0292 50.2816 20.0552 50.5208 20.1072C50.7625 20.1593 51.0106 20.2423 51.265 20.3563L50.9139 21.1742C50.7027 21.085 50.503 21.0119 50.3147 20.9549C50.1289 20.8979 49.9394 20.8694 49.746 20.8694C49.5755 20.8694 49.447 20.8917 49.3605 20.9363C49.274 20.9809 49.2307 21.0491 49.2307 21.1408C49.2307 21.2077 49.2523 21.2672 49.2956 21.3192C49.3414 21.3713 49.4279 21.4295 49.5551 21.4939C49.6849 21.5559 49.8745 21.6364 50.1238 21.7356C50.3656 21.8322 50.5755 21.9339 50.7536 22.0404C50.9317 22.1445 51.0691 22.2747 51.1658 22.4308C51.2625 22.5845 51.3108 22.784 51.3108 23.0294ZM46.4942 20.2522C46.2092 20.1035 45.8695 20.0292 45.4751 20.0292C45.0731 20.0292 44.7207 20.1109 44.4179 20.2745C44.1151 20.4356 43.8784 20.6785 43.708 21.0032C43.54 21.3254 43.4561 21.7294 43.4561 22.2152C43.4561 22.6935 43.5489 23.0901 43.7347 23.4048C43.923 23.7196 44.1812 23.9538 44.5095 24.1075C44.8403 24.2612 45.2194 24.338 45.6469 24.338C45.9751 24.338 46.2537 24.3144 46.4827 24.2674C46.7143 24.2203 46.9356 24.1459 47.1468 24.0443V23.1669C46.9076 23.276 46.6748 23.3577 46.4484 23.4123C46.2219 23.4668 45.9725 23.4941 45.7003 23.4941C45.372 23.4941 45.1151 23.4036 44.9293 23.2227C44.7461 23.0393 44.6481 22.7877 44.6354 22.468H47.3873V21.9178C47.3873 21.5138 47.3097 21.1717 47.1544 20.8917C46.9992 20.6116 46.7791 20.3985 46.4942 20.2522ZM44.9179 21.0478C45.068 20.9065 45.2563 20.8359 45.4827 20.8359C45.6659 20.8359 45.8161 20.8743 45.9331 20.9512C46.0527 21.028 46.1417 21.1321 46.2003 21.2634C46.2613 21.3948 46.2931 21.5447 46.2957 21.7133H44.6621C44.685 21.4109 44.7703 21.1891 44.9179 21.0478ZM41.0019 20.0292C41.4574 20.0292 41.8238 20.1506 42.1011 20.3935C42.3785 20.6339 42.5172 21.0205 42.5172 21.5534V24.2636H41.3531V21.836C41.3531 21.5385 41.2971 21.3142 41.1851 21.1631C41.0757 21.0119 40.9027 20.9363 40.6661 20.9363C40.3098 20.9363 40.0668 21.054 39.9371 21.2895C39.8073 21.5249 39.7424 21.8645 39.7424 22.3081V24.2636H38.5783V20.1072H39.4676L39.6241 20.6389H39.689C39.7806 20.4951 39.8938 20.3786 40.0287 20.2894C40.1661 20.2002 40.3175 20.1345 40.4829 20.0924C40.6508 20.0502 40.8238 20.0292 41.0019 20.0292ZM37.4715 23.1C37.5682 22.8323 37.6165 22.525 37.6165 22.178C37.6165 21.717 37.5275 21.3266 37.3493 21.0069C37.1738 20.6872 36.9308 20.4443 36.6204 20.2782C36.3125 20.1122 35.9588 20.0292 35.5593 20.0292C35.1293 20.0292 34.7591 20.1122 34.4487 20.2782C34.1382 20.4443 33.8991 20.6872 33.7311 21.0069C33.5632 21.3266 33.4792 21.717 33.4792 22.178C33.4792 22.525 33.5288 22.8323 33.6281 23.1C33.7299 23.3677 33.8723 23.5944 34.0555 23.7803C34.2413 23.9637 34.4588 24.1025 34.7082 24.1967C34.9601 24.2909 35.2362 24.338 35.5364 24.338C35.857 24.338 36.1445 24.2909 36.399 24.1967C36.656 24.1025 36.8748 23.9637 37.0555 23.7803C37.2387 23.5944 37.3773 23.3677 37.4715 23.1ZM34.7578 22.8658C34.6967 22.6799 34.6662 22.4506 34.6662 22.178C34.6662 21.7666 34.7349 21.458 34.8723 21.2523C35.0123 21.0466 35.2362 20.9437 35.5441 20.9437C35.7527 20.9437 35.9219 20.9896 36.0517 21.0813C36.1814 21.173 36.2756 21.3105 36.3341 21.4939C36.3952 21.6749 36.4257 21.9029 36.4257 22.178C36.4257 22.4506 36.3952 22.6799 36.3341 22.8658C36.2756 23.0517 36.1814 23.1917 36.0517 23.2859C35.9244 23.3801 35.7578 23.4271 35.5517 23.4271C35.343 23.4271 35.1738 23.3801 35.0441 23.2859C34.9143 23.1917 34.8189 23.0517 34.7578 22.8658ZM27.1778 20.3935C26.9005 20.1506 26.5341 20.0292 26.0786 20.0292C25.9005 20.0292 25.7275 20.0502 25.5595 20.0924C25.3941 20.1345 25.2428 20.2002 25.1054 20.2894C24.9705 20.3786 24.8573 20.4951 24.7657 20.6389H24.7008L24.5443 20.1072H23.655V24.2636H24.8191V22.3081C24.8191 21.8645 24.884 21.5249 25.0138 21.2895C25.1435 21.054 25.3865 20.9363 25.7427 20.9363C25.9794 20.9363 26.1524 21.0119 26.2618 21.1631C26.3738 21.3142 26.4297 21.5385 26.4297 21.836V24.2636H27.5938V21.5534C27.5938 21.0205 27.4552 20.6339 27.1778 20.3935ZM21.1589 24.2637V18.8284H22.3421V24.2637H21.1589Z" fill="#62697A"/>
</svg>
