<svg width="45" height="45" viewBox="0 0 45 45" fill="none" xmlns="http://www.w3.org/2000/svg">
<circle cx="22.5" cy="22.5" r="22.5" fill="#F7F7F2"/>
<ellipse cx="22.3297" cy="22.5" rx="20.9659" ry="20.5" fill="#F7F7F2"/>
<mask id="mask0_1268_9407" style="mask-type:alpha" maskUnits="userSpaceOnUse" x="4" y="4" width="37" height="37">
<path d="M40.0681 22.5C40.0681 32.0624 32.1369 39.8334 22.3295 39.8334C12.522 39.8334 4.59082 32.0624 4.59082 22.5C4.59082 12.9376 12.522 5.16669 22.3295 5.16669C32.1369 5.16669 40.0681 12.9376 40.0681 22.5Z" fill="#FF339C" stroke="#FF2A98"/>
</mask>
<g mask="url(#mask0_1268_9407)">
<path d="M39.8389 20.8611C15.6947 36.8688 -1.38562 22.5952 -13.6364 18.3969L-0.728606 33.0423L25.5426 53.1487C39.2401 49.9676 61.2212 6.68462 39.8389 20.8611Z" fill="#F7F7F2"/>
</g>
<path d="M22 32.35L20.55 31.03C15.4 26.36 12 23.27 12 19.5C12 16.41 14.42 14 17.5 14C19.24 14 20.91 14.81 22 16.08C23.09 14.81 24.76 14 26.5 14C29.58 14 32 16.41 32 19.5C32 23.27 28.6 26.36 23.45 31.03L22 32.35Z" fill="#2C3333"/>
</svg>
