<svg width="45" height="45" viewBox="0 0 45 45" fill="none" xmlns="http://www.w3.org/2000/svg">
<circle cx="22.5" cy="22.5" r="22.5" fill="#F7F7F2"/>
<ellipse cx="22.3297" cy="22.5" rx="20.9659" ry="20.5" fill="#F7F7F2"/>
<mask id="mask0_1268_9412" style="mask-type:alpha" maskUnits="userSpaceOnUse" x="4" y="4" width="37" height="37">
<path d="M40.0681 22.5C40.0681 32.0624 32.1369 39.8334 22.3295 39.8334C12.522 39.8334 4.59082 32.0624 4.59082 22.5C4.59082 12.9376 12.522 5.16669 22.3295 5.16669C32.1369 5.16669 40.0681 12.9376 40.0681 22.5Z" fill="#FF339C" stroke="#FF2A98"/>
</mask>
<g mask="url(#mask0_1268_9412)">
<path d="M39.8389 20.8611C15.6947 36.8688 -1.38562 22.5952 -13.6364 18.3969L-0.728606 33.0423L25.5426 53.1487C39.2401 49.9676 61.2212 6.68462 39.8389 20.8611Z" fill="#F7F7F2"/>
</g>
<path d="M18.7804 10.5385C18.8261 10.383 18.921 10.2465 19.0508 10.1494C19.1806 10.0523 19.3384 9.99991 19.5004 10H25.5004C25.6192 10.0001 25.7363 10.0284 25.842 10.0826C25.9477 10.1367 26.039 10.2153 26.1084 10.3116C26.1778 10.408 26.2234 10.5195 26.2413 10.6369C26.2592 10.7543 26.249 10.8743 26.2114 10.987L23.5414 19H29.2504C29.3909 18.9999 29.5285 19.0392 29.6477 19.1135C29.7669 19.1878 29.8628 19.2941 29.9246 19.4203C29.9863 19.5464 30.0114 19.6874 29.997 19.8271C29.9826 19.9668 29.9292 20.0996 29.8429 20.2105L19.3429 33.7105C19.2354 33.8495 19.0824 33.9462 18.9108 33.984C18.7392 34.0217 18.5597 33.9979 18.4038 33.9168C18.2479 33.8357 18.1254 33.7025 18.0577 33.5403C17.99 33.3782 17.9814 33.1974 18.0334 33.0295L20.7349 24.25H15.7504C15.6338 24.2501 15.5188 24.2229 15.4145 24.1708C15.3102 24.1186 15.2196 24.0429 15.1497 23.9496C15.0798 23.8562 15.0326 23.7479 15.0119 23.6331C14.9912 23.5184 14.9976 23.4004 15.0304 23.2885L18.7804 10.5385Z" fill="#2C3333"/>
</svg>
