<svg width="142" height="30" viewBox="0 0 142 30" fill="none" xmlns="http://www.w3.org/2000/svg">
<path fill-rule="evenodd" clip-rule="evenodd" d="M0 15.0838C0 22.5413 5.41625 28.7425 12.5 30V19.1663H8.75V15H12.5V11.6663C12.5 7.91625 14.9163 5.83375 18.3337 5.83375C19.4163 5.83375 20.5837 6 21.6663 6.16625V10H19.75C17.9163 10 17.5 10.9163 17.5 12.0837V15H21.5L20.8337 19.1663H17.5V30C24.5837 28.7425 30 22.5425 30 15.0838C30 6.7875 23.25 0 15 0C6.75 0 0 6.7875 0 15.0838Z" fill="#FEFCDD"/>
<path fill-rule="evenodd" clip-rule="evenodd" d="M58.8159 0.09C60.4155 0.0163636 60.9255 0 65 0C69.0745 0 69.5845 0.0177273 71.1827 0.09C72.7809 0.162273 73.8718 0.417273 74.8264 0.786818C75.8259 1.16455 76.7327 1.755 77.4827 2.51864C78.2464 3.26727 78.8355 4.17273 79.2118 5.17364C79.5827 6.12818 79.8364 7.21909 79.91 8.81455C79.9836 10.4168 80 10.9268 80 15C80 19.0745 79.9823 19.5845 79.91 21.1841C79.8377 22.7795 79.5827 23.8705 79.2118 24.825C78.8354 25.826 78.2454 26.733 77.4827 27.4827C76.7327 28.2464 75.8259 28.8355 74.8264 29.2118C73.8718 29.5827 72.7809 29.8364 71.1855 29.91C69.5845 29.9836 69.0745 30 65 30C60.9255 30 60.4155 29.9823 58.8159 29.91C57.2205 29.8377 56.1295 29.5827 55.175 29.2118C54.174 28.8354 53.267 28.2453 52.5173 27.4827C51.7542 26.7336 51.1636 25.8271 50.7868 24.8264C50.4173 23.8718 50.1636 22.7809 50.09 21.1855C50.0164 19.5832 50 19.0732 50 15C50 10.9255 50.0177 10.4155 50.09 8.81727C50.1623 7.21909 50.4173 6.12818 50.7868 5.17364C51.1642 4.17284 51.7552 3.26634 52.5186 2.51727C53.2673 1.75432 54.1734 1.16379 55.1736 0.786818C56.1282 0.417273 57.2191 0.163636 58.8145 0.09H58.8159ZM71.0614 2.79C69.4795 2.71773 69.005 2.70273 65 2.70273C60.995 2.70273 60.5205 2.71773 58.9386 2.79C57.4755 2.85682 56.6818 3.10091 56.1527 3.30682C55.4532 3.57955 54.9527 3.90273 54.4277 4.42773C53.9301 4.91189 53.5471 5.50129 53.3068 6.15273C53.1009 6.68182 52.8568 7.47545 52.79 8.93864C52.7177 10.5205 52.7027 10.995 52.7027 15C52.7027 19.005 52.7177 19.4795 52.79 21.0614C52.8568 22.5245 53.1009 23.3182 53.3068 23.8473C53.5468 24.4977 53.93 25.0882 54.4277 25.5723C54.9118 26.07 55.5023 26.4532 56.1527 26.6932C56.6818 26.8991 57.4755 27.1432 58.9386 27.21C60.5205 27.2823 60.9936 27.2973 65 27.2973C69.0064 27.2973 69.4795 27.2823 71.0614 27.21C72.5245 27.1432 73.3182 26.8991 73.8473 26.6932C74.5468 26.4205 75.0473 26.0973 75.5723 25.5723C76.07 25.0882 76.4532 24.4977 76.6932 23.8473C76.8991 23.3182 77.1432 22.5245 77.21 21.0614C77.2823 19.4795 77.2973 19.005 77.2973 15C77.2973 10.995 77.2823 10.5205 77.21 8.93864C77.1432 7.47545 76.8991 6.68182 76.6932 6.15273C76.4205 5.45318 76.0973 4.95273 75.5723 4.42773C75.0881 3.9301 74.4987 3.54711 73.8473 3.30682C73.3182 3.10091 72.5245 2.85682 71.0614 2.79ZM63.0841 19.6241C64.1541 20.0695 65.3455 20.1296 66.4549 19.7942C67.5643 19.4587 68.5228 18.7485 69.1667 17.7849C69.8107 16.8212 70.1001 15.6639 69.9855 14.5106C69.871 13.3573 69.3596 12.2795 68.5386 11.4614C68.0153 10.9384 67.3826 10.5379 66.6859 10.2888C65.9893 10.0397 65.246 9.94822 64.5098 10.0208C63.7735 10.0935 63.0625 10.3284 62.4279 10.7088C61.7933 11.0892 61.251 11.6056 60.84 12.2207C60.4289 12.8359 60.1594 13.5345 60.0507 14.2663C59.9421 14.9981 59.997 15.7449 60.2116 16.453C60.4263 17.161 60.7952 17.8127 61.2919 18.361C61.7886 18.9093 62.4007 19.3407 63.0841 19.6241ZM59.5482 9.54818C60.2641 8.83224 61.1141 8.26432 62.0495 7.87686C62.9849 7.48939 63.9875 7.28996 65 7.28996C66.0125 7.28996 67.0151 7.48939 67.9505 7.87686C68.8859 8.26432 69.7359 8.83224 70.4518 9.54818C71.1678 10.2641 71.7357 11.1141 72.1231 12.0495C72.5106 12.9849 72.71 13.9875 72.71 15C72.71 16.0125 72.5106 17.0151 72.1231 17.9505C71.7357 18.8859 71.1678 19.7359 70.4518 20.4518C69.0059 21.8977 67.0448 22.71 65 22.71C62.9552 22.71 60.9941 21.8977 59.5482 20.4518C58.1023 19.0059 57.29 17.0448 57.29 15C57.29 12.9552 58.1023 10.9941 59.5482 9.54818ZM74.42 8.43818C74.5974 8.27082 74.7394 8.06956 74.8377 7.84633C74.9359 7.62309 74.9884 7.38241 74.9919 7.13854C74.9955 6.89467 74.9501 6.65256 74.8584 6.42656C74.7667 6.20055 74.6306 5.99524 74.4581 5.82278C74.2857 5.65032 74.0804 5.51421 73.8544 5.42252C73.6283 5.33083 73.3862 5.28542 73.1424 5.28898C72.8985 5.29253 72.6578 5.34498 72.4346 5.44322C72.2113 5.54146 72.0101 5.68349 71.8427 5.86091C71.5172 6.20595 71.339 6.66426 71.346 7.13854C71.3529 7.61283 71.5444 8.06574 71.8798 8.40115C72.2152 8.73656 72.6681 8.92804 73.1424 8.93495C73.6166 8.94187 74.075 8.76367 74.42 8.43818Z" fill="#FEFCDD"/>
<path d="M118 21.4286L128.38 15L118 8.57143V21.4286ZM141.12 4.65C141.38 5.65714 141.56 7.00714 141.68 8.72143C141.82 10.4357 141.88 11.9143 141.88 13.2L142 15C142 19.6929 141.68 23.1429 141.12 25.35C140.62 27.2786 139.46 28.5214 137.66 29.0571C136.72 29.3357 135 29.5286 132.36 29.6571C129.76 29.8071 127.38 29.8714 125.18 29.8714L122 30C113.62 30 108.4 29.6571 106.34 29.0571C104.54 28.5214 103.38 27.2786 102.88 25.35C102.62 24.3429 102.44 22.9929 102.32 21.2786C102.18 19.5643 102.12 18.0857 102.12 16.8L102 15C102 10.3071 102.32 6.85714 102.88 4.65C103.38 2.72143 104.54 1.47857 106.34 0.942857C107.28 0.664286 109 0.471428 111.64 0.342857C114.24 0.192857 116.62 0.128571 118.82 0.128571L122 0C130.38 0 135.6 0.342857 137.66 0.942857C139.46 1.47857 140.62 2.72143 141.12 4.65Z" fill="#FEFCDD"/>
</svg>
