<svg width="45" height="45" viewBox="0 0 45 45" fill="none" xmlns="http://www.w3.org/2000/svg">
<circle cx="22.5" cy="22.5" r="22.5" fill="#F7F7F2"/>
<ellipse cx="22.3297" cy="22.5" rx="20.9659" ry="20.5" fill="#F7F7F2"/>
<mask id="mask0_1268_9402" style="mask-type:alpha" maskUnits="userSpaceOnUse" x="4" y="4" width="37" height="37">
<path d="M40.0681 22.5C40.0681 32.0624 32.1369 39.8334 22.3295 39.8334C12.522 39.8334 4.59082 32.0624 4.59082 22.5C4.59082 12.9376 12.522 5.16669 22.3295 5.16669C32.1369 5.16669 40.0681 12.9376 40.0681 22.5Z" fill="#FF339C" stroke="#FF2A98"/>
</mask>
<g mask="url(#mask0_1268_9402)">
<path d="M39.8389 20.8611C15.6947 36.8688 -1.38562 22.5952 -13.6364 18.3969L-0.728606 33.0423L25.5426 53.1487C39.2401 49.9676 61.2212 6.68462 39.8389 20.8611Z" fill="#F7F7F2"/>
</g>
<rect x="17.7271" y="13.3334" width="10.2273" height="10" rx="5" fill="#2C3333"/>
<rect x="20.1138" y="15.3334" width="5.79545" height="8" rx="2.89773" fill="#F7F7F2"/>
<rect x="15" y="19.6667" width="15.3409" height="12.3333" rx="5" fill="#2C3333"/>
<ellipse cx="22.8411" cy="24.3334" rx="1.02273" ry="1" fill="#F7F7F2"/>
<path d="M22.8411 25L23.7268 28H21.9554L22.8411 25Z" fill="#F7F7F2"/>
</svg>
